<?xml version="1.0" encoding="utf-8"?>
<!-- Generator: Adobe Illustrator 19.2.1, SVG Export Plug-In . SVG Version: 6.00 Build 0)  -->
<svg version="1.1" id="Layer_1" xmlns="http://www.w3.org/2000/svg" xmlns:xlink="http://www.w3.org/1999/xlink" x="0px" y="0px"
	 viewBox="0 0 200 41.5" style="enable-background:new 0 0 200 41.5;" xml:space="preserve">
<style type="text/css">
	.st0{fill:none;}
	.st1{fill:#0D9522;}
</style>
<g id="XMLID_101_">
	<g id="XMLID_154_">
		<path id="XMLID_181_" class="st0" d="M51.7,21c0.2,0.8,1.5,0.7,2.3,0.5c0.7-0.2,1.7-0.8,1.8-2.3C54.3,19.8,51.6,19.3,51.7,21z"/>
		<path id="XMLID_180_" class="st0" d="M35.7,17.2h4.7C39.9,15,36.1,15.1,35.7,17.2z"/>
		<path id="XMLID_179_" class="st0" d="M111.3,17.2h4.7C115.6,14.9,111.7,14.7,111.3,17.2z"/>
		<path id="XMLID_178_" class="st0" d="M190.4,17.2h4.7C194.6,14.8,190.7,14.7,190.4,17.2z"/>
		<polygon id="XMLID_177_" points="159.6,10.3 154.8,10.3 154.8,22.8 167.3,22.8 167.3,19.9 159.6,19.9 		"/>
		<path id="XMLID_176_" d="M128.9,17.3c-1,0-1.5-0.4-1.5-0.7c0-0.2,0.2-1,1.6-1c1.5,0,1.5,1.3,1.5,1.3h4.7c0-3-4.9-3.5-6.5-3.5
			c-1.4,0-6.2,0.4-6.2,3.3c-0.2,2.3,1.9,2.3,4,2.7c0.5,0.2,2.6,0.2,3.1,0.2c0.3,0,0.7,0.3,0.7,0.6c0,0.6-0.5,1-1.6,0.9
			c-0.9,0-1.6-0.3-1.6-0.9h-4.8c0,3.3,5.2,3.1,6.4,3.1c1.4-0.1,6.8-0.2,6.8-3.1C135.5,17,130.5,17.3,128.9,17.3z"/>
		<rect id="XMLID_175_" x="168.8" y="13.9" width="4.4" height="8.9"/>
		<path id="XMLID_174_" d="M142.9,10.9h-2.7c0,1.1-1.1,2.9-2.8,2.9h-1v2.1h1.8c0,0,0,1.1,0,4.4c0,2.1,2.8,2.8,4.6,2.8
			c0.7,0,3-0.4,4.2-0.5v-2.2c-2.3,0.3-4.2,0.6-4.2-0.9V16h4.2v-2.1h-4L142.9,10.9L142.9,10.9z"/>
		<path id="XMLID_171_" d="M190.4,19.3h9.6c-0.1-3.5-2.6-6.1-7.5-6.1c-4,0-7.5,2.2-7.5,5.1s3,5,7.6,5c4.8,0,6.5-2,7.2-3.1h-5.1
			C194.1,21.2,190.4,21.6,190.4,19.3z M195,17.2h-4.7C190.7,14.7,194.6,14.8,195,17.2z"/>
		<path id="XMLID_170_" d="M181,13.7c0-1.7,1.9-1.5,4.2-1v-2.1c-1.9-0.6-4-0.5-4.2-0.5c-2.1,0-4.4,0.7-4.4,3.7V14H175v2.1h1.6v6.7
			h4.5v-6.8h3.3v-2.1L181,13.7L181,13.7z"/>
		<path id="XMLID_169_" d="M171.1,9.8c-1.4,0-2.3,0.9-2.3,1.9c0,0.9,1.1,1.6,2.3,1.6s2.3-0.6,2.3-1.6
			C173.4,10.6,172.3,9.8,171.1,9.8z"/>
		<polygon id="XMLID_168_" points="101.4,10.3 100,14.6 99.1,17.3 97,10.3 94.6,10.3 92.3,10.3 90.2,17.4 87.8,10.3 82.4,10.3 
			87,22.8 91.9,22.8 94.6,15.4 97.4,22.8 102.3,22.8 106.8,10.3 		"/>
		<path id="XMLID_167_" d="M25.3,13.8h-4.2L21,22.8h4.7V19c0-2.7,3-2.2,4.4-2.2v-3.3c-1.6,0-3.4,0.4-4.4,1.3
			C25.6,14.4,25.4,14.1,25.3,13.8z"/>
		<path id="XMLID_164_" d="M37.9,13.4L37.9,13.4c-4.2,0-7.6,2.1-7.6,5s3,5,7.5,5c4.9,0,6.7-2.1,7.3-3.3H40c-0.6,1.2-4.2,1.5-4.4-0.8
			c3.3,0,5.9,0,9.6-0.1C45.2,19.3,45.2,13.4,37.9,13.4z M35.7,17.2c0.5-2.1,4.4-2.3,4.8,0H35.7z"/>
		<path id="XMLID_163_" d="M9.5,12.7c2.6,0,3.4,1.6,3.5,2.3h5.9c-0.4-3.7-5.3-5.3-9.5-5.3C5.7,9.6,0,11.7,0,16.7
			c0,4.7,4.4,6.8,9.5,6.8c4.4,0,8.9-1.2,9.4-1.4v-5.9h-8.2v2.7c1.8,0.1,1.3,0.1,2.9,0l0.1,0.9c0,0-1.7,0.5-4.2,0.5
			c-2.1,0-4.1-1.3-4.1-3.8C5.4,14.6,6.7,12.7,9.5,12.7z"/>
		<path id="XMLID_160_" d="M113.4,13.3c-4,0-7.5,2.3-7.5,5.1s3,5,7.5,5c4.9,0,6.6-2.1,7.3-3.3h-5.2c-0.6,1.2-4.2,1.5-4.4-0.8h9.6
			C120.9,15.8,118.4,13.3,113.4,13.3z M111.3,17.2c0.3-2.5,4.3-2.3,4.7,0H111.3z"/>
		<rect id="XMLID_159_" x="75.1" y="16.5" width="6.3" height="2.6"/>
		<path id="XMLID_158_" d="M69,10.9h-2.6c0,1.1-1.1,2.9-2.9,2.9h-1v2.1h1.8c0,0,0,1.2,0,4.4c0,2.1,2.8,2.8,4.6,2.8
			c0.9,0,4.2-0.3,4.2-0.5v-2.2c-2.2,0.3-4,0.6-4-0.9L69,16h4.2v-2.1h-4v-3H69z"/>
		<path id="XMLID_155_" d="M60.5,19.6l-0.1-1.9c0-2.5-1.5-3-1.7-3.2c-3.7-1.9-8.2-1-11.3,0.2l1.3,2c3.9-1.9,7.5-1.1,7.1,0.2
			c-0.5,0.9-2.8,0.9-4.8,0.9c-2.6,0-4.4,0.9-4.4,3c0,2.3,3.5,2.6,4.6,2.6c1.6,0,4.2-0.3,5.7-1c1.7,1.2,5,0.9,5.8,0.4v-1.9
			c0,0-0.5,0.2-1.2,0.2C60.6,21,60.4,20.3,60.5,19.6z M54,21.4c-0.7,0.2-2.1,0.3-2.3-0.5c-0.2-1.7,2.6-1.2,4-1.8
			C55.7,20.7,54.7,21.2,54,21.4z"/>
	</g>
	<g id="XMLID_132_">
		<path id="XMLID_151_" d="M24.9,36l2.2-4.4h0.6l2.1,4.4h-0.5l-0.6-1.3h-2.5L25.4,36H24.9z M26.3,34.3h2.1L27.3,32L26.3,34.3z"/>
		<path id="XMLID_149_" d="M31.7,34.6c0.1,0.8,0.7,1.1,1.6,1.1c1,0,1.4-0.4,1.4-0.9c0-1.3-3.3-0.5-3.3-2.2c0-0.6,0.6-1.2,1.9-1.2
			c1.2,0,1.9,0.6,1.9,1.3h-0.5c0-0.7-0.6-0.9-1.3-0.9c-1,0-1.4,0.5-1.3,0.9c0.2,1.1,3.3,0.3,3.3,2c0,0.8-0.7,1.2-2,1.2
			c-1.2,0-1.9-0.5-1.9-1.4C31.3,34.6,31.7,34.6,31.7,34.6z"/>
		<path id="XMLID_147_" d="M37.4,34.6c0.1,0.8,0.7,1.1,1.6,1.1c1,0,1.4-0.4,1.4-0.9c0-1.3-3.3-0.5-3.3-2.2c0-0.6,0.6-1.2,1.9-1.2
			c1.2,0,1.9,0.6,1.9,1.3h-0.5c0-0.7-0.6-0.9-1.3-0.9c-1,0-1.4,0.5-1.3,0.9c0.2,1.1,3.3,0.3,3.3,2c0,0.8-0.7,1.2-2,1.2
			c-1.2,0-1.9-0.5-1.9-1.4C37,34.6,37.4,34.6,37.4,34.6z"/>
		<path id="XMLID_145_" d="M42.9,31.6h0.5v2.6c0,1.1,0.5,1.5,1.6,1.5s1.6-0.5,1.6-1.5v-2.6h0.5v2.7c0,1.1-0.7,1.7-2.1,1.7
			c-1.4,0-2.1-0.6-2.1-1.7v-2.7H42.9z"/>
		<path id="XMLID_142_" d="M49.9,33.9v2h-0.5v-4.4h2.1c1.2,0,1.9,0.3,1.9,1.2c0,0.5-0.2,0.9-0.9,1.1c0.6,0.2,0.7,0.7,0.7,1.2
			c0,0.6,0.1,0.9,0.2,0.9l0,0h-0.5c-0.2-0.3-0.2-1.1-0.2-1.5c-0.2-0.5-0.5-0.5-1.1-0.5H49.9z M51.5,33.6c0.8,0,1.3-0.2,1.3-0.9
			c0-0.6-0.6-0.8-1.3-0.8h-1.6v1.6H51.5z"/>
		<path id="XMLID_139_" d="M55,36l2.2-4.4h0.6l2,4.4h-0.5l-0.6-1.3h-2.5L55.6,36H55z M56.3,34.3h2.1L57.3,32L56.3,34.3z"/>
		<path id="XMLID_137_" d="M62.2,32.2L62.2,32.2V36h-0.5v-4.4h0.5l3.2,3.8l0,0v-3.8h0.5V36h-0.6L62.2,32.2z"/>
		<path id="XMLID_135_" d="M72,32.9c-0.2-0.8-0.8-1-1.7-1c-1.3,0-1.9,0.9-1.9,1.9c0,0.9,0.5,1.9,1.9,1.9c0.9,0,1.6-0.5,1.7-1.2h0.5
			c-0.2,0.9-0.9,1.6-2.3,1.6c-1.7,0-2.3-1.1-2.3-2.3c0-1.6,1.1-2.3,2.6-2.3c1.1,0,1.9,0.5,2.1,1.4H72V32.9z"/>
		<path id="XMLID_133_" d="M74.7,36v-4.4h3.7v0.3h-3.1v1.6H78v0.3h-2.8v1.7h3.2V36H74.7z"/>
	</g>
	<g id="XMLID_114_">
		<path id="XMLID_130_" d="M124.9,32.9c-0.2-0.8-0.8-1-1.7-1c-1.3,0-1.9,0.9-1.9,1.9c0,0.9,0.5,1.9,1.9,1.9c0.9,0,1.6-0.5,1.7-1.2
			h0.5c-0.2,0.9-0.9,1.6-2.3,1.6c-1.7,0-2.3-1.1-2.3-2.3c0-1.6,1.1-2.3,2.6-2.3c1.1,0,1.9,0.5,2.1,1.4h-0.6V32.9z"/>
		<path id="XMLID_127_" d="M130.1,31.5c1.7,0,2.6,1,2.6,2.3c0,1.2-0.9,2.3-2.6,2.3s-2.6-1-2.6-2.3C127.5,32.5,128.4,31.5,130.1,31.5
			z M132.1,33.8c0-1.2-0.8-1.9-2-1.9c-1.4,0-2,0.9-2,1.9c0,1,0.6,1.9,2,1.9S132.1,34.8,132.1,33.8z"/>
		<path id="XMLID_125_" d="M134.8,36v-4.4h0.8l1.8,3.8l0,0l1.8-3.8h0.8V36h-0.5v-3.9l0,0l-1.8,3.9h-0.5l-1.8-3.9l0,0V36H134.8z"/>
		<path id="XMLID_122_" d="M142.3,36v-4.4h2c1.4,0,1.8,0.5,1.8,1.2c0,0.9-1.1,1.2-2.1,1.2h-1.2V36H142.3z M144.1,33.7
			c0.9,0,1.6-0.2,1.6-0.9c0-0.5-0.5-0.9-1.4-0.9h-1.3v1.7H144.1z"/>
		<path id="XMLID_119_" d="M147.2,36l2.2-4.4h0.5L152,36h-0.5l-0.6-1.3h-2.5l-0.7,1.3H147.2z M148.5,34.3h2.1l-1.1-2.3L148.5,34.3z"
			/>
		<path id="XMLID_117_" d="M154.4,32.2L154.4,32.2V36h-0.5v-4.4h0.6l3.2,3.8l0,0v-3.8h0.5V36h-0.6L154.4,32.2z"/>
		<path id="XMLID_115_" d="M162.2,33.7l1.6-2.1h0.6l-1.9,2.4V36H162v-1.9l-1.9-2.5h0.6L162.2,33.7z"/>
	</g>
	<g id="XMLID_107_">
		<path id="XMLID_112_" d="M92.2,1h4v0.3h-1.7v4h-0.5v-4h-1.7L92.2,1L92.2,1z"/>
		<path id="XMLID_110_" d="M97.9,5.3V1h0.5v1.9h3.3V1h0.5v4.4h-0.5V3.3h-3.3v2.1H97.9z"/>
		<path id="XMLID_108_" d="M104.4,5.3V1h3.7v0.3H105v1.6h2.8v0.3H105v1.7h3.2v0.3h-3.7V5.3z"/>
	</g>
	<g id="XMLID_102_">
		<g id="XMLID_105_">
			<polygon id="XMLID_106_" class="st1" points="104.3,35.7 104.3,39.1 108.2,39.1 108.2,37.9 109.1,37.9 109.1,39.1 113.1,39.1 
				113.1,35.7 111.1,35.7 111.1,38.4 109.7,38.4 109.7,35.7 107.6,35.7 107.6,38.4 106.2,38.4 106.2,35.7 			"/>
		</g>
		<path id="XMLID_103_" class="st1" d="M113.1,34.3v-2.1H92.5v2.1h1.9c-0.5,1.6-1.7,2.9-3.2,2.9c-1.9,0-3.3-1.9-3.3-4.1
			s1.5-4.1,3.3-4.1c1.4,0,2.6,1.1,3.1,2.6l1.9-0.8c-0.8-2.3-2.7-4-5-4c-3,0-5.4,2.8-5.4,6.2s2.4,6.2,5.4,6.2c2.6,0,4.7-2.1,5.2-4.9
			L113.1,34.3z"/>
	</g>
</g>
</svg>
